<mxfile host="app.diagrams.net" agent="Mozilla/5.0 (Windows NT 10.0; Win64; x64) AppleWebKit/537.36 (KHTML, like Gecko) Chrome/129.0.0.0 Safari/537.36" version="24.7.17">
  <diagram name="Page-1" id="iv-ceRMYykWWUbIPhT0H">
    <mxGraphModel dx="2402" dy="1452" grid="0" gridSize="10" guides="0" tooltips="1" connect="1" arrows="1" fold="1" page="0" pageScale="1" pageWidth="850" pageHeight="1100" math="0" shadow="0">
      <root>
        <mxCell id="0" />
        <mxCell id="1" parent="0" />
        <mxCell id="cnR79YpQgru_kzIVy44T-28" style="edgeStyle=orthogonalEdgeStyle;rounded=0;orthogonalLoop=1;jettySize=auto;html=1;entryX=0;entryY=0.5;entryDx=0;entryDy=0;startArrow=classicThin;startFill=1;fillColor=#fff2cc;gradientColor=#ffd966;strokeColor=#d6b656;strokeWidth=3;flowAnimation=1;" parent="1" source="cnR79YpQgru_kzIVy44T-19" target="cnR79YpQgru_kzIVy44T-17" edge="1">
          <mxGeometry relative="1" as="geometry" />
        </mxCell>
        <mxCell id="cnR79YpQgru_kzIVy44T-19" value="" style="whiteSpace=wrap;html=1;aspect=fixed;" parent="1" vertex="1">
          <mxGeometry x="250" y="-160" width="340" height="340" as="geometry" />
        </mxCell>
        <mxCell id="cnR79YpQgru_kzIVy44T-1" value="APPLE DEVICE" style="html=1;verticalLabelPosition=bottom;align=center;labelBackgroundColor=#ffffff;verticalAlign=top;strokeWidth=2;strokeColor=#0080F0;shadow=0;dashed=0;shape=mxgraph.ios7.icons.smartphone;" parent="1" vertex="1">
          <mxGeometry x="255" y="240" width="335" height="460" as="geometry" />
        </mxCell>
        <mxCell id="cnR79YpQgru_kzIVy44T-4" value="IOS" style="rounded=0;whiteSpace=wrap;html=1;" parent="1" vertex="1">
          <mxGeometry x="255" y="570" width="145" height="60" as="geometry" />
        </mxCell>
        <mxCell id="cnR79YpQgru_kzIVy44T-8" style="edgeStyle=orthogonalEdgeStyle;rounded=0;orthogonalLoop=1;jettySize=auto;html=1;startArrow=classic;startFill=1;flowAnimation=1;fillColor=#dae8fc;strokeColor=#6c8ebf;strokeWidth=3;" parent="1" source="cnR79YpQgru_kzIVy44T-5" target="cnR79YpQgru_kzIVy44T-4" edge="1">
          <mxGeometry relative="1" as="geometry" />
        </mxCell>
        <mxCell id="cnR79YpQgru_kzIVy44T-5" value="SE" style="rounded=0;whiteSpace=wrap;html=1;" parent="1" vertex="1">
          <mxGeometry x="470" y="570" width="120" height="60" as="geometry" />
        </mxCell>
        <mxCell id="cnR79YpQgru_kzIVy44T-10" style="edgeStyle=orthogonalEdgeStyle;rounded=0;orthogonalLoop=1;jettySize=auto;html=1;entryX=0.5;entryY=0;entryDx=0;entryDy=0;flowAnimation=1;fillColor=#dae8fc;strokeColor=#6c8ebf;strokeWidth=3;" parent="1" source="cnR79YpQgru_kzIVy44T-9" target="cnR79YpQgru_kzIVy44T-5" edge="1">
          <mxGeometry relative="1" as="geometry" />
        </mxCell>
        <mxCell id="cnR79YpQgru_kzIVy44T-9" value="SDK" style="rounded=0;whiteSpace=wrap;html=1;" parent="1" vertex="1">
          <mxGeometry x="255" y="480" width="335" height="50" as="geometry" />
        </mxCell>
        <mxCell id="cnR79YpQgru_kzIVy44T-12" style="edgeStyle=orthogonalEdgeStyle;rounded=0;orthogonalLoop=1;jettySize=auto;html=1;exitX=0.5;exitY=1;exitDx=0;exitDy=0;startArrow=classic;startFill=1;flowAnimation=1;strokeWidth=3;fillColor=#dae8fc;strokeColor=#6c8ebf;" parent="1" source="cnR79YpQgru_kzIVy44T-9" target="cnR79YpQgru_kzIVy44T-4" edge="1">
          <mxGeometry relative="1" as="geometry">
            <mxPoint x="433" y="550" as="sourcePoint" />
            <mxPoint x="540" y="580" as="targetPoint" />
          </mxGeometry>
        </mxCell>
        <mxCell id="cnR79YpQgru_kzIVy44T-14" style="edgeStyle=orthogonalEdgeStyle;rounded=0;orthogonalLoop=1;jettySize=auto;html=1;entryX=0.5;entryY=0;entryDx=0;entryDy=0;startArrow=classicThin;startFill=1;flowAnimation=1;fillColor=#dae8fc;strokeColor=#6c8ebf;strokeWidth=3;" parent="1" source="cnR79YpQgru_kzIVy44T-13" target="cnR79YpQgru_kzIVy44T-9" edge="1">
          <mxGeometry relative="1" as="geometry" />
        </mxCell>
        <mxCell id="cnR79YpQgru_kzIVy44T-23" style="edgeStyle=orthogonalEdgeStyle;rounded=0;orthogonalLoop=1;jettySize=auto;html=1;entryX=0.5;entryY=1;entryDx=0;entryDy=0;startArrow=classicThin;startFill=1;flowAnimation=1;fillColor=#d80073;strokeColor=#A50040;strokeWidth=3;exitX=0.5;exitY=0.283;exitDx=0;exitDy=0;exitPerimeter=0;" parent="1" source="cnR79YpQgru_kzIVy44T-1" target="cnR79YpQgru_kzIVy44T-20" edge="1">
          <mxGeometry relative="1" as="geometry">
            <mxPoint x="515" y="370" as="sourcePoint" />
          </mxGeometry>
        </mxCell>
        <mxCell id="cnR79YpQgru_kzIVy44T-13" value="Mobile Application" style="rounded=0;whiteSpace=wrap;html=1;" parent="1" vertex="1">
          <mxGeometry x="255" y="370" width="335" height="60" as="geometry" />
        </mxCell>
        <mxCell id="cnR79YpQgru_kzIVy44T-15" value="EWS&amp;nbsp;&lt;div&gt;Trusted Service Manager&lt;/div&gt;" style="whiteSpace=wrap;html=1;aspect=fixed;" parent="1" vertex="1">
          <mxGeometry x="280" y="50" width="110" height="110" as="geometry" />
        </mxCell>
        <mxCell id="cnR79YpQgru_kzIVy44T-16" style="edgeStyle=orthogonalEdgeStyle;rounded=0;orthogonalLoop=1;jettySize=auto;html=1;entryX=0.003;entryY=0.6;entryDx=0;entryDy=0;entryPerimeter=0;startArrow=classicThin;startFill=1;flowAnimation=1;exitX=0.5;exitY=1;exitDx=0;exitDy=0;fillColor=#d80073;strokeColor=#A50040;strokeWidth=3;" parent="1" source="cnR79YpQgru_kzIVy44T-15" target="cnR79YpQgru_kzIVy44T-1" edge="1">
          <mxGeometry relative="1" as="geometry">
            <Array as="points">
              <mxPoint x="335" y="200" />
              <mxPoint x="200" y="200" />
              <mxPoint x="200" y="516" />
            </Array>
          </mxGeometry>
        </mxCell>
        <mxCell id="cnR79YpQgru_kzIVy44T-17" value="Issuing Banks&amp;nbsp;" style="whiteSpace=wrap;html=1;aspect=fixed;" parent="1" vertex="1">
          <mxGeometry x="680" y="-48.75" width="120" height="120" as="geometry" />
        </mxCell>
        <mxCell id="cnR79YpQgru_kzIVy44T-22" style="edgeStyle=orthogonalEdgeStyle;rounded=0;orthogonalLoop=1;jettySize=auto;html=1;startArrow=classicThin;startFill=1;strokeWidth=3;flowAnimation=1;fillColor=#d5e8d4;strokeColor=#82b366;gradientColor=#97d077;" parent="1" source="cnR79YpQgru_kzIVy44T-20" target="cnR79YpQgru_kzIVy44T-15" edge="1">
          <mxGeometry relative="1" as="geometry" />
        </mxCell>
        <mxCell id="cnR79YpQgru_kzIVy44T-20" value="Wallet Management" style="whiteSpace=wrap;html=1;aspect=fixed;" parent="1" vertex="1">
          <mxGeometry x="460" y="50" width="110" height="110" as="geometry" />
        </mxCell>
        <mxCell id="cnR79YpQgru_kzIVy44T-25" style="edgeStyle=orthogonalEdgeStyle;rounded=0;orthogonalLoop=1;jettySize=auto;html=1;entryX=0.5;entryY=0;entryDx=0;entryDy=0;startArrow=classic;startFill=1;fillColor=#d5e8d4;gradientColor=#97d077;strokeColor=#82b366;strokeWidth=3;flowAnimation=1;" parent="1" source="cnR79YpQgru_kzIVy44T-24" target="cnR79YpQgru_kzIVy44T-20" edge="1">
          <mxGeometry relative="1" as="geometry" />
        </mxCell>
        <mxCell id="cnR79YpQgru_kzIVy44T-24" value="Consumer Wallets &amp;amp;&amp;nbsp;&lt;div&gt;Profiles&lt;/div&gt;" style="whiteSpace=wrap;html=1;aspect=fixed;" parent="1" vertex="1">
          <mxGeometry x="460" y="-110" width="110" height="110" as="geometry" />
        </mxCell>
        <mxCell id="cnR79YpQgru_kzIVy44T-26" value="Fraud Detection" style="whiteSpace=wrap;html=1;aspect=fixed;" parent="1" vertex="1">
          <mxGeometry x="280" y="-110" width="110" height="110" as="geometry" />
        </mxCell>
        <mxCell id="cnR79YpQgru_kzIVy44T-27" style="edgeStyle=orthogonalEdgeStyle;rounded=0;orthogonalLoop=1;jettySize=auto;html=1;entryX=-0.009;entryY=0.15;entryDx=0;entryDy=0;entryPerimeter=0;startArrow=classicThin;startFill=1;strokeWidth=3;fillColor=#d5e8d4;gradientColor=#97d077;strokeColor=#82b366;flowAnimation=1;" parent="1" source="cnR79YpQgru_kzIVy44T-26" target="cnR79YpQgru_kzIVy44T-20" edge="1">
          <mxGeometry relative="1" as="geometry" />
        </mxCell>
        <mxCell id="cnR79YpQgru_kzIVy44T-29" value="&lt;h1 style=&quot;margin-top: 0px;&quot;&gt;&lt;span style=&quot;background-color: initial;&quot;&gt;Approach-1&lt;/span&gt;&lt;br&gt;&lt;/h1&gt;&lt;div&gt;&lt;span style=&quot;background-color: initial;&quot;&gt;Apple allows direct connect to SE to registered third parties&lt;/span&gt;&lt;/div&gt;&lt;div&gt;&lt;span style=&quot;background-color: initial;&quot;&gt;&lt;br&gt;&lt;/span&gt;&lt;/div&gt;" style="text;html=1;whiteSpace=wrap;overflow=hidden;rounded=0;" parent="1" vertex="1">
          <mxGeometry x="40" y="-110" width="180" height="120" as="geometry" />
        </mxCell>
        <mxCell id="cnR79YpQgru_kzIVy44T-30" value="EWS Hosted Services" style="text;html=1;align=center;verticalAlign=middle;whiteSpace=wrap;rounded=0;" parent="1" vertex="1">
          <mxGeometry x="370" y="-150" width="135" height="30" as="geometry" />
        </mxCell>
        <mxCell id="cnR79YpQgru_kzIVy44T-31" value="Over the air(OTA) provisioning services" style="text;html=1;align=center;verticalAlign=middle;whiteSpace=wrap;rounded=0;rotation=-90;" parent="1" vertex="1">
          <mxGeometry x="95" y="350" width="160" height="30" as="geometry" />
        </mxCell>
        <mxCell id="cnR79YpQgru_kzIVy44T-38" style="edgeStyle=orthogonalEdgeStyle;rounded=0;orthogonalLoop=1;jettySize=auto;html=1;entryX=1;entryY=0.75;entryDx=0;entryDy=0;startArrow=classicThin;startFill=1;fillColor=#d5e8d4;gradientColor=#97d077;strokeColor=#82b366;flowAnimation=1;strokeWidth=3;jumpStyle=arc;" parent="1" source="cnR79YpQgru_kzIVy44T-35" target="cnR79YpQgru_kzIVy44T-15" edge="1">
          <mxGeometry relative="1" as="geometry">
            <Array as="points">
              <mxPoint x="410" y="31" />
              <mxPoint x="410" y="133" />
            </Array>
          </mxGeometry>
        </mxCell>
        <mxCell id="cnR79YpQgru_kzIVy44T-35" value="HSM" style="rounded=1;whiteSpace=wrap;html=1;" parent="1" vertex="1">
          <mxGeometry x="300" y="20" width="55" height="21" as="geometry" />
        </mxCell>
      </root>
    </mxGraphModel>
  </diagram>
</mxfile>
